<svg width="700pt" height="700pt" version="1.1" viewBox="0 0 700 700" xmlns="http://www.w3.org/2000/svg" xmlns:xlink="http://www.w3.org/1999/xlink">
 <g>
  <path d="m478.8 355.6c-19.828 0-26.09-32.664-34.02-74.02-3.7695-19.645-10.719-55.91-17.516-60.238-6.7969 4.3281-13.754 40.594-17.516 60.238-7.9336 41.352-14.195 74.02-34.027 74.02-19.82 0-26.074-32.664-33.996-74.016-3.7617-19.641-10.711-55.887-17.5-60.246-6.7969 4.3438-13.746 40.602-17.512 60.246-7.9336 41.348-14.188 74.016-34.012 74.016-19.82 0-26.078-32.664-34.004-74.02-3.8359-20.004-10.965-57.23-17.875-60.445l0.375-16.738c19.82 0 26.074 32.664 33.996 74.016 3.7617 19.641 10.711 55.887 17.5 60.246 6.793-4.3516 13.742-40.602 17.504-60.238 7.9297-41.355 14.184-74.02 34.008-74.02 19.82 0 26.078 32.664 34.004 74.02 3.7617 19.641 10.707 55.887 17.5 60.238 6.7969-4.3359 13.754-40.602 17.516-60.246 7.9297-41.355 14.191-74.016 34.02-74.016s26.09 32.664 34.02 74.02c3.8359 20.004 10.977 57.242 17.891 60.445z"/>
  <use x="70" y="644" xlink:href="#v"/>
  <use x="90.550781" y="644" xlink:href="#b"/>
  <use x="104.359375" y="644" xlink:href="#e"/>
  <use x="123.347656" y="644" xlink:href="#a"/>
  <use x="142.242188" y="644" xlink:href="#d"/>
  <use x="155.628906" y="644" xlink:href="#e"/>
  <use x="174.617188" y="644" xlink:href="#k"/>
  <use x="204.410156" y="644" xlink:href="#j"/>
  <use x="224.453125" y="644" xlink:href="#i"/>
  <use x="252.453125" y="644" xlink:href="#h"/>
  <use x="280.3125" y="644" xlink:href="#a"/>
  <use x="299.210938" y="644" xlink:href="#b"/>
  <use x="313.015625" y="644" xlink:href="#g"/>
  <use x="329.617188" y="644" xlink:href="#c"/>
  <use x="358.601562" y="644" xlink:href="#u"/>
  <use x="381.582031" y="644" xlink:href="#a"/>
  <use x="400.476562" y="644" xlink:href="#t"/>
  <use x="410.074219" y="644" xlink:href="#d"/>
  <use x="423.460938" y="644" xlink:href="#a"/>
  <use x="442.351562" y="644" xlink:href="#b"/>
  <use x="456.164062" y="644" xlink:href="#c"/>
  <use x="475.398438" y="644" xlink:href="#f"/>
  <use x="492.0625" y="644" xlink:href="#f"/>
  <use x="508.730469" y="644" xlink:href="#a"/>
  <use x="70" y="672" xlink:href="#s"/>
  <use x="82.183594" y="672" xlink:href="#b"/>
  <use x="95.992188" y="672" xlink:href="#c"/>
  <use x="115.226562" y="672" xlink:href="#r"/>
  <use x="154.152344" y="672" xlink:href="#d"/>
  <use x="167.535156" y="672" xlink:href="#q"/>
  <use x="187.46875" y="672" xlink:href="#e"/>
  <use x="216.207031" y="672" xlink:href="#p"/>
  <use x="239.640625" y="672" xlink:href="#c"/>
  <use x="258.878906" y="672" xlink:href="#o"/>
  <use x="278.8125" y="672" xlink:href="#n"/>
  <use x="308.492188" y="672" xlink:href="#m"/>
  <use x="329.015625" y="672" xlink:href="#b"/>
  <use x="342.820312" y="672" xlink:href="#c"/>
  <use x="362.058594" y="672" xlink:href="#l"/>
  <use x="371.65625" y="672" xlink:href="#e"/>
  <use x="390.648438" y="672" xlink:href="#g"/>
  <use x="407.242188" y="672" xlink:href="#d"/>
 </g>
</svg>
