
<svg width="700pt" height="700pt" version="1.1" viewBox="0 0 700 700" xmlns="http://www.w3.org/2000/svg" xmlns:xlink="http://www.w3.org/1999/xlink">

 <g>
  <path d="m313.34 355.6h-63.289v-134.4h-29.547v-16.801h46.344v134.4h29.691v-134.4h62.34v131.6h32.535v-131.6h62.336v131.6h25.754v16.801h-42.555v-131.6h-28.734v131.6h-66.137v-131.6h-28.738z"/>
  <use x="70" y="644" xlink:href="#v"/>
  <use x="90.550781" y="644" xlink:href="#b"/>
  <use x="104.359375" y="644" xlink:href="#e"/>
  <use x="123.347656" y="644" xlink:href="#a"/>
  <use x="142.242188" y="644" xlink:href="#d"/>
  <use x="155.628906" y="644" xlink:href="#e"/>
  <use x="174.617188" y="644" xlink:href="#k"/>
  <use x="204.410156" y="644" xlink:href="#j"/>
  <use x="224.453125" y="644" xlink:href="#i"/>
  <use x="252.453125" y="644" xlink:href="#h"/>
  <use x="280.3125" y="644" xlink:href="#a"/>
  <use x="299.210938" y="644" xlink:href="#b"/>
  <use x="313.015625" y="644" xlink:href="#g"/>
  <use x="329.617188" y="644" xlink:href="#c"/>
  <use x="358.601562" y="644" xlink:href="#u"/>
  <use x="381.582031" y="644" xlink:href="#a"/>
  <use x="400.476562" y="644" xlink:href="#t"/>
  <use x="410.074219" y="644" xlink:href="#d"/>
  <use x="423.460938" y="644" xlink:href="#a"/>
  <use x="442.351562" y="644" xlink:href="#b"/>
  <use x="456.164062" y="644" xlink:href="#c"/>
  <use x="475.398438" y="644" xlink:href="#f"/>
  <use x="492.0625" y="644" xlink:href="#f"/>
  <use x="508.730469" y="644" xlink:href="#a"/>
  <use x="70" y="672" xlink:href="#s"/>
  <use x="82.183594" y="672" xlink:href="#b"/>
  <use x="95.992188" y="672" xlink:href="#c"/>
  <use x="115.226562" y="672" xlink:href="#r"/>
  <use x="154.152344" y="672" xlink:href="#d"/>
  <use x="167.535156" y="672" xlink:href="#q"/>
  <use x="187.46875" y="672" xlink:href="#e"/>
  <use x="216.207031" y="672" xlink:href="#p"/>
  <use x="239.640625" y="672" xlink:href="#c"/>
  <use x="258.878906" y="672" xlink:href="#o"/>
  <use x="278.8125" y="672" xlink:href="#n"/>
  <use x="308.492188" y="672" xlink:href="#m"/>
  <use x="329.015625" y="672" xlink:href="#b"/>
  <use x="342.820312" y="672" xlink:href="#c"/>
  <use x="362.058594" y="672" xlink:href="#l"/>
  <use x="371.65625" y="672" xlink:href="#e"/>
  <use x="390.648438" y="672" xlink:href="#g"/>
  <use x="407.242188" y="672" xlink:href="#d"/>
 </g>
</svg>
